<svg viewBox="0 0 1200 440" width="100%" height="440"
     xmlns="http://www.w3.org/2000/svg" role="img"
     aria-label="Dragon Ball-inspired CNN animation for Data Science, AI, ML, and Quant Research (light theme)">
  <defs>
    <!-- LIGHT YELLOW BACKGROUND -->
    <linearGradient id="bg" x1="0" y1="0" x2="1" y2="1">
      <stop offset="0%"  stop-color="#FFF7CC"/>
      <stop offset="55%" stop-color="#FFEEB0"/>
      <stop offset="100%" stop-color="#FFE38A"/>
    </linearGradient>

    <!-- Dragon Ball orange wire gradient -->
    <linearGradient id="wire" x1="0" y1="0" x2="1" y2="0">
      <stop offset="0%"   stop-color="#FFB15B" stop-opacity="0.35"/>
      <stop offset="45%"  stop-color="#FF7A00" stop-opacity="0.70"/>
      <stop offset="100%" stop-color="#C84B00" stop-opacity="0.35"/>
    </linearGradient>

    <!-- Orb (orange energy sphere) -->
    <radialGradient id="orbFill" cx="35%" cy="30%" r="70%">
      <stop offset="0%" stop-color="#FFE8C7"/>
      <stop offset="45%" stop-color="#FFB85F"/>
      <stop offset="75%" stop-color="#FF7A00"/>
      <stop offset="100%" stop-color="#B94100"/>
    </radialGradient>

    <!-- Orb highlight -->
    <radialGradient id="orbShine" cx="30%" cy="25%" r="45%">
      <stop offset="0%" stop-color="#FFFFFF" stop-opacity="0.9"/>
      <stop offset="55%" stop-color="#FFFFFF" stop-opacity="0.18"/>
      <stop offset="100%" stop-color="#FFFFFF" stop-opacity="0"/>
    </radialGradient>

    <!-- Star gradient -->
    <linearGradient id="starG" x1="0" y1="0" x2="0" y2="1">
      <stop offset="0%" stop-color="#FF2D2D"/>
      <stop offset="100%" stop-color="#9A0000"/>
    </linearGradient>

    <!-- Cards (soft cream panel) -->
    <linearGradient id="card" x1="0" y1="0" x2="1" y2="1">
      <stop offset="0%"  stop-color="#FFF2D3" stop-opacity="0.92"/>
      <stop offset="100%" stop-color="#FFE7B8" stop-opacity="0.88"/>
    </linearGradient>

    <!-- Feature map tint (warm sand) -->
    <linearGradient id="fm" x1="0" y1="0" x2="1" y2="1">
      <stop offset="0%"   stop-color="#FFD29A" stop-opacity="0.38"/>
      <stop offset="100%" stop-color="#FF7A00" stop-opacity="0.12"/>
    </linearGradient>

    <!-- Glow: tuned for light background -->
    <filter id="glow" x="-70%" y="-70%" width="240%" height="240%">
      <feGaussianBlur stdDeviation="3" result="b"/>
      <feColorMatrix in="b" type="matrix"
        values="1 0 0 0 0
                0 1 0 0 0
                0 0 1 0 0
                0 0 0 0.55 0" result="bb"/>
      <feMerge>
        <feMergeNode in="bb"/>
        <feMergeNode in="SourceGraphic"/>
      </feMerge>
    </filter>

    <!-- Pulse glow -->
    <filter id="pulseGlow" x="-90%" y="-90%" width="280%" height="280%">
      <feGaussianBlur stdDeviation="6" result="bb"/>
      <feColorMatrix in="bb" type="matrix"
        values="1 0 0 0 0
                0 1 0 0 0
                0 0 1 0 0
                0 0 0 0.55 0"/>
      <feMerge>
        <feMergeNode/>
        <feMergeNode in="SourceGraphic"/>
      </feMerge>
    </filter>

    <!-- Signal dot (orange energy) -->
    <radialGradient id="sig" cx="50%" cy="50%" r="60%">
      <stop offset="0%" stop-color="#FFFFFF" stop-opacity="1"/>
      <stop offset="35%" stop-color="#FFD29A" stop-opacity="0.95"/>
      <stop offset="70%" stop-color="#FF9F3D" stop-opacity="0.60"/>
      <stop offset="100%" stop-color="#FF7A00" stop-opacity="0"/>
    </radialGradient>

    <!-- 5-point star (centered at 0,0) -->
    <path id="star5" d="M0,-7 L1.9,-2.2 L6.7,-2.2 L2.8,0.8 L4.3,6.2 L0,3.3 L-4.3,6.2 L-2.8,0.8 L-6.7,-2.2 L-1.9,-2.2 Z"/>

    <style>
      /* TEXT: deep warm brown for readability */
      .title { font: 900 16px ui-sans-serif, system-ui, -apple-system, Segoe UI, Roboto, Arial;
               fill: #4A2400; letter-spacing: .2px; }
      .sub   { font: 700 12px ui-sans-serif, system-ui, -apple-system, Segoe UI, Roboto, Arial;
               fill: #7A3C00; opacity: .92; }
      .tiny  { font: 800 11px ui-sans-serif, system-ui, -apple-system, Segoe UI, Roboto, Arial;
               fill: #4A2400; opacity: .95; }

      .wire { stroke: url(#wire); stroke-width: 2.4; fill: none; stroke-linecap: round; opacity: .95; }
      .wireDash { stroke-dasharray: 8 12; animation: dash 6s linear infinite; }
      @keyframes dash { to { stroke-dashoffset: -220; } }

      /* Panels + maps */
      .card { fill: url(#card); stroke: #C84B00; stroke-opacity: .18; stroke-width: 1.2; }
      .fm { fill: url(#fm); stroke: #C84B00; stroke-opacity: .22; stroke-width: 1; }

      /* Kernel */
      .kernel { fill: none; stroke: #C84B00; stroke-width: 2; filter: url(#glow); stroke-opacity: .85; }
      .kernelCell { fill: #C84B00; opacity: .06; }
      .kernelHot { fill: #FF7A00; opacity: .22; filter: url(#pulseGlow); }

      /* Orbs */
      .orb { filter: url(#glow); }
      .orbRing { fill: none; stroke: #C84B00; stroke-opacity: .25; stroke-width: 2; }
      .orbPulse { transform-box: fill-box; transform-origin: center; animation: orbPulse 2.4s ease-in-out infinite; }
      @keyframes orbPulse { 0%{transform:scale(1);opacity:.85} 50%{transform:scale(1.10);opacity:.35} 100%{transform:scale(1);opacity:.85} }

      @media (prefers-reduced-motion: reduce) {
        .wireDash { animation: none !important; }
        .orbPulse { animation: none !important; }
      }
    </style>

    <!-- Paths for moving signal dots -->
    <path id="flow1" d="M220 245 C 300 245, 330 210, 400 210"/>
    <path id="flow2" d="M400 210 C 470 210, 500 220, 560 220"/>
    <path id="flow3" d="M560 220 C 650 220, 690 220, 760 220"/>
    <path id="flow4" d="M760 220 C 860 220, 900 200, 980 200"/>
    <path id="flow5" d="M980 200 C 1040 200, 1080 210, 1120 220"/>
  </defs>

  <!-- NEW LIGHT YELLOW BACKGROUND -->
  <rect x="0" y="0" width="1200" height="440" rx="22" fill="url(#bg)"/>

<!-- Centered Header -->
<text x="600" y="44" text-anchor="middle"
      font-size="38" fill="#F97316" stroke="#111827" stroke-width="2.2"
      font-family="system-ui, -apple-system, Segoe UI, Roboto, Arial, sans-serif"
      font-weight="900" letter-spacing="0.5">
  Gokou · Data Science · AI · Quant
</text>


<text x="600" y="72" class="sub" text-anchor="middle"

        font-size="17" fill="#111827"
        font-family="system-ui, sans-serif">
    UPenn AI · Harvard DS · WSU CS · Machine Learning · Quant Trading · Research
</text>



     
  <!-- Input -->
  <g transform="translate(40,135)">
    <rect class="card" x="0" y="0" width="170" height="220" rx="16"/>
    <text class="tiny" x="16" y="28">Input</text>
    <text class="sub"  x="16" y="50">224×224×3</text>

    <g transform="translate(18,70)">
      <rect class="fm" x="0" y="0" width="134" height="134" rx="10"/>
      <g opacity=".20" stroke="#B94100" stroke-width="1">
        <path d="M0 22 H134 M0 44 H134 M0 66 H134 M0 88 H134 M0 110 H134"/>
        <path d="M22 0 V134 M44 0 V134 M66 0 V134 M88 0 V134 M110 0 V134"/>
      </g>
      <rect x="66" y="44" width="22" height="22" rx="4" fill="#FF7A00" opacity=".10">
        <animate attributeName="opacity" values="0.05;0.22;0.05" dur="1.7s" repeatCount="indefinite"/>
      </rect>
      <rect x="22" y="88" width="22" height="22" rx="4" fill="#C84B00" opacity=".08">
        <animate attributeName="opacity" values="0.04;0.18;0.04" dur="2.1s" repeatCount="indefinite" begin=".2s"/>
      </rect>
      <rect x="88" y="22" width="22" height="22" rx="4" fill="#FFB15B" opacity=".08">
        <animate attributeName="opacity" values="0.04;0.16;0.04" dur="1.9s" repeatCount="indefinite" begin=".4s"/>
      </rect>
    </g>

    <!-- 3-star orb -->
    <g class="orb" transform="translate(126,186)">
      <circle cx="0" cy="0" r="26" fill="url(#orbFill)"/>
      <circle cx="-7" cy="-9" r="18" fill="url(#orbShine)" opacity=".9"/>
      <circle cx="0" cy="0" r="28" class="orbRing"/>
      <g class="orbPulse"><circle cx="0" cy="0" r="28" class="orbRing" opacity=".45"/></g>
      <g transform="translate(0,2) scale(0.9)">
        <use href="#star5" fill="url(#starG)" transform="translate(-10,-2) scale(0.8)"/>
        <use href="#star5" fill="url(#starG)" transform="translate(0,6) scale(0.8)"/>
        <use href="#star5" fill="url(#starG)" transform="translate(10,-2) scale(0.8)"/>
      </g>
    </g>
  </g>

  <!-- Conv1 -->
  <g transform="translate(260,135)">
    <rect class="card" x="0" y="0" width="190" height="220" rx="16"/>
    <text class="tiny" x="16" y="28">Conv 3×3</text>
    <text class="sub"  x="16" y="50">64 filters</text>

    <g transform="translate(26,70)">
      <rect class="fm" x="18" y="18" width="118" height="118" rx="10" opacity=".55"/>
      <rect class="fm" x="10" y="10" width="118" height="118" rx="10" opacity=".75"/>
      <rect class="fm" x="0"  y="0"  width="118" height="118" rx="10"/>

      <g>
        <rect class="kernel" x="8" y="8" width="30" height="30" rx="6"/>
        <g transform="translate(8,8)">
          <rect class="kernelCell" x="0" y="0" width="10" height="10" rx="2"/>
          <rect class="kernelCell" x="10" y="0" width="10" height="10" rx="2"/>
          <rect class="kernelCell" x="20" y="0" width="10" height="10" rx="2"/>
          <rect class="kernelCell" x="0" y="10" width="10" height="10" rx="2"/>
          <rect class="kernelHot"  x="10" y="10" width="10" height="10" rx="2">
            <animate attributeName="opacity" values="0.10;0.40;0.10" dur="0.9s" repeatCount="indefinite"/>
          </rect>
          <rect class="kernelCell" x="20" y="10" width="10" height="10" rx="2"/>
          <rect class="kernelCell" x="0" y="20" width="10" height="10" rx="2"/>
          <rect class="kernelCell" x="10" y="20" width="10" height="10" rx="2"/>
          <rect class="kernelCell" x="20" y="20" width="10" height="10" rx="2"/>
        </g>

        <animateTransform attributeName="transform" type="translate"
          values="0 0; 60 0; 60 50; 0 50; 0 90; 60 90; 60 0; 0 0"
          keyTimes="0; .18; .34; .50; .68; .84; .94; 1"
          dur="3.6s" repeatCount="indefinite"/>
      </g>

      <circle cx="90" cy="42" r="10" fill="#FF7A00" opacity=".10" filter="url(#pulseGlow)">
        <animate attributeName="r" values="8;16;8" dur="1.8s" repeatCount="indefinite" begin=".2s"/>
        <animate attributeName="opacity" values="0.05;0.18;0.05" dur="1.8s" repeatCount="indefinite" begin=".2s"/>
      </circle>
    </g>

    <!-- 4-star orb -->
    <g class="orb" transform="translate(150,186)">
      <circle cx="0" cy="0" r="26" fill="url(#orbFill)"/>
      <circle cx="-7" cy="-9" r="18" fill="url(#orbShine)" opacity=".9"/>
      <circle cx="0" cy="0" r="28" class="orbRing"/>
      <g class="orbPulse" style="animation-delay:.25s"><circle cx="0" cy="0" r="28" class="orbRing" opacity=".45"/></g>
      <g transform="translate(0,2) scale(0.9)">
        <use href="#star5" fill="url(#starG)" transform="translate(-10,-2) scale(0.75)"/>
        <use href="#star5" fill="url(#starG)" transform="translate(10,-2) scale(0.75)"/>
        <use href="#star5" fill="url(#starG)" transform="translate(-10,10) scale(0.75)"/>
        <use href="#star5" fill="url(#starG)" transform="translate(10,10) scale(0.75)"/>
      </g>
    </g>
  </g>

  <!-- Pool -->
  <g transform="translate(480,135)">
    <rect class="card" x="0" y="0" width="160" height="220" rx="16"/>
    <text class="tiny" x="16" y="28">MaxPool</text>
    <text class="sub"  x="16" y="50">↓ 2×</text>

    <g transform="translate(24,74)">
      <rect class="fm" x="0" y="0" width="92" height="92" rx="10" opacity=".75"/>
      <g opacity=".16" stroke="#B94100" stroke-width="1">
        <path d="M0 23 H92 M0 46 H92 M0 69 H92"/>
        <path d="M23 0 V92 M46 0 V92 M69 0 V92"/>
      </g>

      <g transform="translate(104,12)">
        <rect class="fm" x="0" y="0" width="64" height="64" rx="10" opacity=".95"/>
        <g opacity=".16" stroke="#B94100" stroke-width="1">
          <path d="M0 16 H64 M0 32 H64 M0 48 H64"/>
          <path d="M16 0 V64 M32 0 V64 M48 0 V64"/>
        </g>
        <animateTransform attributeName="transform" type="translate"
          values="104 12; 104 0; 104 12" dur="2.6s" repeatCount="indefinite"/>
      </g>

      <path d="M96 44 L112 44" stroke="#7A3C00" stroke-opacity=".55" stroke-width="2" stroke-linecap="round"/>
      <path d="M112 44 L106 38 M112 44 L106 50" stroke="#7A3C00" stroke-opacity=".55" stroke-width="2" stroke-linecap="round"/>
      <circle cx="96" cy="44" r="8" fill="#FF7A00" opacity=".10" filter="url(#pulseGlow)">
        <animate attributeName="r" values="6;14;6" dur="1.7s" repeatCount="indefinite"/>
        <animate attributeName="opacity" values="0.05;0.18;0.05" dur="1.7s" repeatCount="indefinite"/>
      </circle>
    </g>
  </g>

  <!-- Conv2 -->
  <g transform="translate(670,135)">
    <rect class="card" x="0" y="0" width="220" height="220" rx="16"/>
    <text class="tiny" x="16" y="28">Conv 3×3</text>
    <text class="sub"  x="16" y="50">128 filters</text>

    <g transform="translate(28,70)">
      <rect class="fm" x="24" y="24" width="124" height="124" rx="12" opacity=".50"/>
      <rect class="fm" x="12" y="12" width="124" height="124" rx="12" opacity=".72"/>
      <rect class="fm" x="0"  y="0"  width="124" height="124" rx="12"/>

      <g>
        <rect class="kernel" x="14" y="14" width="34" height="34" rx="7"/>
        <animateTransform attributeName="transform" type="translate"
          values="0 0; 72 0; 72 60; 10 60; 10 96; 72 96; 72 0; 0 0"
          keyTimes="0; .18; .34; .50; .68; .84; .94; 1"
          dur="4.4s" repeatCount="indefinite" begin=".2s"/>
      </g>

      <path d="M8 110 C 30 85, 55 135, 78 110 S 126 85, 150 110"
            stroke="#FF7A00" stroke-opacity=".22" stroke-width="2" fill="none">
        <animate attributeName="stroke-opacity" values="0.10;0.30;0.10" dur="2.2s" repeatCount="indefinite"/>
      </path>
    </g>

    <!-- 6-star orb -->
    <g class="orb" transform="translate(176,186)">
      <circle cx="0" cy="0" r="26" fill="url(#orbFill)"/>
      <circle cx="-7" cy="-9" r="18" fill="url(#orbShine)" opacity=".9"/>
      <circle cx="0" cy="0" r="28" class="orbRing"/>
      <g class="orbPulse" style="animation-delay:.5s"><circle cx="0" cy="0" r="28" class="orbRing" opacity=".45"/></g>
      <g transform="translate(0,2) scale(0.88)">
        <use href="#star5" fill="url(#starG)" transform="translate(-12,-6) scale(0.65)"/>
        <use href="#star5" fill="url(#starG)" transform="translate(0,-8) scale(0.65)"/>
        <use href="#star5" fill="url(#starG)" transform="translate(12,-6) scale(0.65)"/>
        <use href="#star5" fill="url(#starG)" transform="translate(-12,8) scale(0.65)"/>
        <use href="#star5" fill="url(#starG)" transform="translate(0,10) scale(0.65)"/>
        <use href="#star5" fill="url(#starG)" transform="translate(12,8) scale(0.65)"/>
      </g>
    </g>
  </g>

  <!-- Dense + Output -->
  <g transform="translate(920,135)">
    <rect class="card" x="0" y="0" width="240" height="220" rx="16"/>
    <text class="tiny" x="16" y="28">Dense</text>
    <text class="sub"  x="16" y="50">512 → 10</text>

    <g transform="translate(20,76)">
      <g>
        <circle cx="40" cy="20" r="8" fill="#FFF4D9" stroke="#B94100" stroke-opacity=".22" stroke-width="2"/>
        <circle cx="40" cy="52" r="8" fill="#FFF4D9" stroke="#B94100" stroke-opacity=".22" stroke-width="2"/>
        <circle cx="40" cy="84" r="8" fill="#FFF4D9" stroke="#B94100" stroke-opacity=".22" stroke-width="2"/>
        <circle cx="40" cy="116" r="8" fill="#FFF4D9" stroke="#B94100" stroke-opacity=".22" stroke-width="2"/>
      </g>

      <g>
        <circle cx="180" cy="36" r="9" fill="#FFF4D9" stroke="#FF7A00" stroke-opacity=".28" stroke-width="2"/>
        <circle cx="180" cy="72" r="9" fill="#FFF4D9" stroke="#FF7A00" stroke-opacity=".28" stroke-width="2"/>
        <circle cx="180" cy="108" r="9" fill="#FFF4D9" stroke="#FF7A00" stroke-opacity=".28" stroke-width="2"/>
      </g>

      <g class="wire wireDash" opacity=".9">
        <path d="M48 20 C 90 20, 120 36, 171 36"/>
        <path d="M48 20 C 90 20, 120 72, 171 72"/>
        <path d="M48 52 C 90 52, 120 36, 171 36"/>
        <path d="M48 52 C 90 52, 120 72, 171 72"/>
        <path d="M48 84 C 90 84, 120 72, 171 72"/>
        <path d="M48 84 C 90 84, 120 108, 171 108"/>
        <path d="M48 116 C 90 116, 120 108, 171 108"/>
      </g>

      <circle cx="180" cy="72" r="14" fill="#FF7A00" opacity=".10" filter="url(#pulseGlow)">
        <animate attributeName="r" values="12;20;12" dur="1.9s" repeatCount="indefinite"/>
        <animate attributeName="opacity" values="0.05;0.18;0.05" dur="1.9s" repeatCount="indefinite"/>
      </circle>

      <text class="sub" x="154" y="152" opacity=".88">softmax</text>
    </g>

    <!-- Final orb: 7-star -->
    <g class="orb" transform="translate(200,186)">
      <circle cx="0" cy="0" r="26" fill="url(#orbFill)"/>
      <circle cx="-7" cy="-9" r="18" fill="url(#orbShine)" opacity=".9"/>
      <circle cx="0" cy="0" r="28" class="orbRing"/>
      <g class="orbPulse" style="animation-delay:.75s"><circle cx="0" cy="0" r="28" class="orbRing" opacity=".45"/></g>

      <g transform="translate(0,2) scale(0.86)">
        <use href="#star5" fill="url(#starG)" transform="translate(0,2) scale(0.62)"/>
        <use href="#star5" fill="url(#starG)" transform="translate(0,-14) rotate(0)  scale(0.52)"/>
        <use href="#star5" fill="url(#starG)" transform="translate(12,-7) rotate(18) scale(0.52)"/>
        <use href="#star5" fill="url(#starG)" transform="translate(12,9)  rotate(36) scale(0.52)"/>
        <use href="#star5" fill="url(#starG)" transform="translate(0,16)  rotate(54) scale(0.52)"/>
        <use href="#star5" fill="url(#starG)" transform="translate(-12,9) rotate(72) scale(0.52)"/>
        <use href="#star5" fill="url(#starG)" transform="translate(-12,-7) rotate(90) scale(0.52)"/>
      </g>
    </g>
  </g>

  <!-- Global wires -->
  <g class="wire wireDash">
    <path d="M220 245 C 300 245, 330 210, 400 210"/>
    <path d="M450 225 C 480 225, 500 225, 560 220"/>
    <path d="M640 225 C 650 225, 690 225, 760 220"/>
    <path d="M890 225 C 920 225, 940 200, 980 200"/>
  </g>

  <!-- Flow dots -->
  <g>
    <circle r="11" fill="url(#sig)">
      <animateMotion dur="2.9s" repeatCount="indefinite"><mpath href="#flow1"/></animateMotion>
      <animate attributeName="opacity" values="0;1;0" dur="2.9s" repeatCount="indefinite"/>
    </circle>
    <circle r="10" fill="url(#sig)">
      <animateMotion dur="3.2s" begin=".25s" repeatCount="indefinite"><mpath href="#flow2"/></animateMotion>
      <animate attributeName="opacity" values="0;1;0" dur="3.2s" begin=".25s" repeatCount="indefinite"/>
    </circle>
    <circle r="10" fill="url(#sig)">
      <animateMotion dur="3.6s" begin=".5s" repeatCount="indefinite"><mpath href="#flow3"/></animateMotion>
      <animate attributeName="opacity" values="0;1;0" dur="3.6s" begin=".5s" repeatCount="indefinite"/>
    </circle>
    <circle r="11" fill="url(#sig)">
      <animateMotion dur="3.0s" begin=".35s" repeatCount="indefinite"><mpath href="#flow4"/></animateMotion>
      <animate attributeName="opacity" values="0;1;0" dur="3.0s" begin=".35s" repeatCount="indefinite"/>
    </circle>
    <circle r="10" fill="url(#sig)">
      <animateMotion dur="3.4s" begin=".65s" repeatCount="indefinite"><mpath href="#flow5"/></animateMotion>
      <animate attributeName="opacity" values="0;1;0" dur="3.4s" begin=".65s" repeatCount="indefinite"/>
    </circle>
  </g>
</svg>
